<svg width="60" height="60" viewBox="0 0 60 60" fill="none" xmlns="http://www.w3.org/2000/svg">
<g id="IMAGE">
<path id="Vector" d="M17.5 5H42.5V25.8125C42.5 26.7708 42.2604 27.6458 41.7812 28.4375C41.3021 29.2292 40.6458 29.875 39.8125 30.375L31 35.5L32.625 41.5625H41L34.1875 46.625L36.8125 55L30 49.9375L23.125 55L25.75 46.625L18.9375 41.5625H27.375L28.9375 35.5L20.1875 30.375C19.3542 29.875 18.6979 29.2292 18.2187 28.4375C17.7396 27.6458 17.5 26.7708 17.5 25.8125V5ZM21.25 8.75V25.8125C21.25 26.1042 21.3438 26.375 21.5313 26.625C21.7188 26.875 22 27.1042 22.375 27.3125L28.375 30.625V8.75H21.25ZM38.75 8.75H32.125V30.625L37.625 27.3125C38 27.1042 38.2812 26.875 38.4688 26.625C38.6562 26.375 38.75 26.1042 38.75 25.8125V8.75Z" fill="black"/>
</g>
</svg>
