<svg width="60" height="60" viewBox="0 0 60 60" fill="none" xmlns="http://www.w3.org/2000/svg">
<g id="IMAGE">
<path id="Vector" d="M10 52.5V48.75H49.9375V52.5H10ZM19.4375 45C16.8125 45 14.5833 44.0938 12.75 42.2812C10.9167 40.4688 10 38.25 10 35.625V7.5H51.25C52.2917 7.5 53.1771 7.86458 53.9062 8.59375C54.6354 9.32292 55 10.2083 55 11.25V21.25C55 22.2917 54.6354 23.1771 53.9062 23.9062C53.1771 24.6354 52.2917 25 51.25 25H45.25V35.625C45.25 38.25 44.3333 40.4688 42.5 42.2812C40.6667 44.0938 38.4375 45 35.8125 45H19.4375ZM19.4375 41.25H35.8125C37.3125 41.25 38.6354 40.6771 39.7812 39.5312C40.9271 38.3854 41.5 37.0833 41.5 35.625V11.25H13.75V35.625C13.75 37.0833 14.3333 38.3854 15.5 39.5312C16.6667 40.6771 17.9792 41.25 19.4375 41.25ZM45.25 21.25H51.25V11.25H45.25V21.25Z" fill="black"/>
</g>
</svg>
